<?xml version="1.0" encoding="UTF-8" standalone="no"?>
<svg
   xmlns:dc="http://purl.org/dc/elements/1.1/"
   xmlns:cc="http://creativecommons.org/ns#"
   xmlns:rdf="http://www.w3.org/1999/02/22-rdf-syntax-ns#"
   xmlns:svg="http://www.w3.org/2000/svg"
   xmlns="http://www.w3.org/2000/svg"
   xmlns:sodipodi="http://sodipodi.sourceforge.net/DTD/sodipodi-0.dtd"
   xmlns:inkscape="http://www.inkscape.org/namespaces/inkscape"
   width="1158.276mm"
   height="730.62354mm"
   viewBox="0 0 1158.276 730.62354"
   version="1.1"
   id="svg8"
   inkscape:version="1.0.1 (3bc2e813f5, 2020-09-07)"
   sodipodi:docname="blackboard.svg">
  <defs
     id="defs2">
    <clipPath
       clipPathUnits="userSpaceOnUse"
       id="clipPath861">
      <path
         d="M 0,2244 H 3450 V 0 H 0 Z"
         id="path859" />
    </clipPath>
    <clipPath
       clipPathUnits="userSpaceOnUse"
       id="clipPath881">
      <path
         d="M 0,0 H 2407.393 V 1924.609 H 0 Z"
         id="path879" />
    </clipPath>
    <clipPath
       clipPathUnits="userSpaceOnUse"
       id="clipPath981">
      <path
         d="M 0,2244 H 3450 V 0 H 0 Z"
         id="path979" />
    </clipPath>
    <clipPath
       clipPathUnits="userSpaceOnUse"
       id="clipPath997">
      <path
         d="M 0,2244 H 3450 V 0 H 0 Z"
         id="path995" />
    </clipPath>
    <clipPath
       clipPathUnits="userSpaceOnUse"
       id="clipPath1041">
      <path
         d="M 0,2244 H 3450 V 0 H 0 Z"
         id="path1039" />
    </clipPath>
  </defs>
  <sodipodi:namedview
     id="base"
     pagecolor="#ffffff"
     bordercolor="#666666"
     borderopacity="1.0"
     inkscape:pageopacity="0.0"
     inkscape:pageshadow="2"
     inkscape:zoom="0.35"
     inkscape:cx="2911.7252"
     inkscape:cy="1414.9915"
     inkscape:document-units="mm"
     inkscape:current-layer="layer1"
     inkscape:document-rotation="0"
     showgrid="false"
     inkscape:window-width="2480"
     inkscape:window-height="1411"
     inkscape:window-x="71"
     inkscape:window-y="-9"
     inkscape:window-maximized="1" />
  <metadata
     id="metadata5">
    <rdf:RDF>
      <cc:Work
         rdf:about="">
        <dc:format>image/svg+xml</dc:format>
        <dc:type
           rdf:resource="http://purl.org/dc/dcmitype/StillImage" />
        <dc:title></dc:title>
      </cc:Work>
    </rdf:RDF>
  </metadata>
  <g
     inkscape:label="Layer 1"
     inkscape:groupmode="layer"
     id="layer1"
     transform="translate(664.56063,498.35937)">
    <g
       id="g841"
       inkscape:label="gopher with the board-04"
       transform="matrix(0.35277777,0,0,-0.35277777,-692.01662,267.34203)">
      <path
         d="M 3358,645.931 H 1016 V 2009.21 h 2342 z"
         style="fill:#000000;fill-opacity:1;fill-rule:nonzero;stroke:none"
         id="path843" />
      <path
         d="M 3274.451,712.98 H 1093.34 V 1946.865 H 3274.451 Z M 1000.146,640.39 H 3361.129 V 2014.757 H 1000.146 Z"
         style="fill:#b3b3b4;fill-opacity:1;fill-rule:nonzero;stroke:none"
         id="path845" />
      <g
         id="g847"
         transform="translate(1093.3398,712.9805)">
        <path
           d="m 0,0 v 1233.885 l -93.193,67.891 V -72.591 Z"
           style="fill:#cccccc;fill-opacity:1;fill-rule:nonzero;stroke:none"
           id="path849" />
      </g>
      <g
         id="g851"
         transform="translate(3274.4512,1946.8652)">
        <path
           d="m 0,0 v -1233.885 l 86.679,-72.591 V 67.892 Z"
           style="fill:#e6e6e6;fill-opacity:1;fill-rule:nonzero;stroke:none"
           id="path853" />
      </g>
      <g
         id="g855">
        <g
           id="g857"
           clip-path="url(#clipPath861)">
          <g
             id="g863"
             transform="translate(1946.9287,2010.1152)">
            <path
               d="m 0,0 c -1.451,0 -2.872,0.618 -3.717,1.754 -1.313,1.772 -0.719,4.131 1.331,5.268 l 247.343,137.272 c 1.447,0.805 3.312,0.803 4.759,0.002 L 496.322,7.854 c 2.05,-1.137 2.649,-3.494 1.339,-5.268 -1.317,-1.771 -4.039,-2.292 -6.093,-1.156 L 247.343,136.556 2.377,0.603 C 1.641,0.195 0.813,0 0,0"
               style="fill:#272727;fill-opacity:1;fill-rule:nonzero;stroke:none"
               id="path865" />
          </g>
          <g
             id="g867"
             transform="translate(2213.2324,2149.2949)">
            <path
               d="m 0,0 c 0,-11.706 -10.973,-21.197 -24.516,-21.197 -13.539,0 -24.511,9.491 -24.511,21.197 0,11.705 10.972,21.197 24.511,21.197 C -10.973,21.197 0,11.705 0,0"
               style="fill:#ffffff;fill-opacity:1;fill-rule:nonzero;stroke:none"
               id="path869" />
          </g>
          <g
             id="g871"
             transform="translate(2188.7168,2170.4922)">
            <path
               d="m 0,0 c -0.845,0 -1.676,-0.037 -2.494,-0.11 9.389,-2.969 16.101,-10.741 16.101,-19.888 0,-10.978 -9.65,-20.006 -22.017,-21.088 2.626,-0.832 5.451,-1.309 8.41,-1.309 13.543,0 24.516,9.492 24.516,21.198 C 24.516,-9.492 13.543,0 0,0"
               style="fill:#cececf;fill-opacity:1;fill-rule:nonzero;stroke:none"
               id="path873" />
          </g>
        </g>
      </g>
      <g
         id="g875">
        <g
           id="g877"
           clip-path="url(#clipPath881)">
          <g
             id="g883"
             transform="translate(756.6641,632.3994)">
            <path
               d="M 0,0 C -18.531,20.55 -50.327,22.183 -70.861,3.667 L -84.864,-8.932 v 31.22 c 0,35.495 -7.549,69.243 -21.035,99.807 21.971,16.66 35.109,42.553 35.109,70.898 0,49.156 -39.991,89.148 -89.147,89.148 -27.92,0 -53.502,-12.756 -70.188,-34.158 -38.128,27.725 -15.37,66.591 -15.37,66.591 -44.103,-6.309 -76.056,-38.8 -76.056,-38.8 5.52,17.949 20.675,42.695 20.675,42.695 -44.527,-12.395 -115.437,-55.596 -136.161,-68.365 -16.698,20.106 -41.468,32.037 -68.445,32.037 -49.156,0 -89.145,-39.992 -89.145,-89.148 0,-28.179 12.978,-53.936 34.716,-70.607 -13.57,-30.64 -21.166,-64.49 -21.166,-100.098 v -83.036 l -81.211,-73.169 c -20.545,-18.531 -22.186,-50.326 -3.654,-70.871 9.895,-10.972 23.565,-16.548 37.292,-16.548 11.976,0 23.998,4.253 33.566,12.883 l 14.007,12.599 v -20.299 c 0,-80.097 38.187,-151.408 97.274,-196.801 v -69.831 c 0,-27.668 22.511,-50.181 50.18,-50.181 27.668,0 50.179,22.513 50.179,50.181 v 23.698 c 16.302,-3.381 33.182,-5.173 50.474,-5.173 17.58,0 34.731,1.868 51.287,5.363 v -23.888 c 0,-27.668 22.513,-50.181 50.181,-50.181 27.667,0 50.18,22.513 50.18,50.181 v 70.472 c 58.616,45.419 96.458,116.436 96.458,196.16 v 72.113 l 81.209,73.172 C 16.888,-52.338 18.528,-20.548 0,0"
               style="fill:#000000;fill-opacity:1;fill-rule:nonzero;stroke:none"
               id="path885" />
          </g>
          <g
             id="g887"
             transform="translate(649.2461,654.6748)">
            <path
               d="m 0,0 v -238.438 c 0,-78.106 -39.922,-147.094 -100.435,-187.596 -3.642,-2.417 -7.345,-4.736 -11.115,-6.959 -15.66,-9.216 -32.513,-16.564 -50.267,-21.784 -20.203,-5.991 -41.599,-9.214 -63.733,-9.214 -56.099,0 -107.428,20.622 -146.933,54.648 -0.064,0.031 -0.097,0.097 -0.161,0.128 -4.252,3.642 -8.377,7.411 -12.341,11.375 -4.542,4.544 -8.891,9.279 -13.016,14.209 -4.028,4.738 -7.831,9.636 -11.439,14.727 -0.869,1.288 -1.771,2.578 -2.674,3.866 -1.709,2.546 -3.384,5.091 -5.027,7.7 -0.066,0.098 -0.128,0.225 -0.194,0.356 -0.741,1.16 -1.449,2.351 -2.159,3.545 -0.869,1.449 -1.738,2.93 -2.576,4.413 -0.742,1.352 -1.483,2.673 -2.224,4.028 -1.482,2.769 -2.9,5.54 -4.286,8.377 -0.677,1.416 -1.354,2.834 -1.996,4.255 -0.679,1.449 -1.323,2.868 -1.934,4.317 -0.453,1.029 -0.903,2.062 -1.322,3.059 -0.386,0.872 -0.741,1.773 -1.096,2.676 -0.419,1.063 -0.838,2.095 -1.224,3.125 -1.707,4.383 -3.254,8.861 -4.672,13.405 -0.419,1.321 -0.838,2.673 -1.224,4.027 -0.999,3.415 -1.935,6.862 -2.77,10.343 -0.323,1.321 -0.647,2.674 -0.936,4.028 -0.033,0.161 -0.064,0.322 -0.097,0.449 -0.322,1.419 -0.611,2.834 -0.902,4.256 -1.288,6.506 -2.321,13.113 -3.029,19.817 -0.16,1.321 -0.288,2.639 -0.388,3.994 -0.031,0.291 -0.061,0.613 -0.095,0.935 -0.097,1.222 -0.194,2.449 -0.288,3.706 -0.067,0.739 -0.097,1.48 -0.131,2.221 -0.097,1.127 -0.128,2.29 -0.194,3.45 v 0.419 c -0.095,1.544 -0.128,3.123 -0.161,4.672 -0.033,1.674 -0.064,3.348 -0.064,5.027 V 0 c 0,69.632 31.708,131.979 81.424,173.354 0.677,0.611 1.387,1.16 2.062,1.673 0.452,0.419 0.871,0.775 1.322,1.064 0.516,0.483 1.032,0.902 1.579,1.29 h 0.033 c 0.611,0.548 1.255,1.03 1.899,1.482 0.774,0.612 1.613,1.258 2.514,1.966 18.818,14.468 64.541,47.398 132.433,82.067 0,0 -3.934,-21.202 -3.642,-37.41 0.03,-2.383 0.161,-4.672 0.417,-6.764 0,0 3.03,2.706 7.927,6.798 12.535,10.44 37.249,30.062 54.648,37.376 0,0 -1.868,-36.024 50.362,-64.604 l 1.063,-0.58 C -47.333,159.303 0,85.065 0,0"
               style="fill:#6dcace;fill-opacity:1;fill-rule:nonzero;stroke:none"
               id="path889" />
          </g>
          <g
             id="g891"
             transform="translate(663.3184,825.3848)">
            <path
               d="m 0,0 c 0,-10.923 -2.609,-21.363 -7.412,-30.612 -3.833,-7.409 -9.054,-14.046 -15.433,-19.589 -6.22,11.117 -13.274,21.718 -21.074,31.705 4.674,4.866 7.669,11.376 8.024,18.529 0.031,0.483 0.031,0.966 0.031,1.449 0,15.886 -12.888,28.807 -28.804,28.807 -3.287,0 -6.413,-0.549 -9.344,-1.546 -3.867,-1.324 -7.347,-3.45 -10.279,-6.187 -10.021,8.087 -20.719,15.403 -31.933,21.845 1.127,1.258 2.287,2.483 3.481,3.61 12.147,11.791 28.516,18.592 46.14,18.592 C -29.871,66.603 0,36.732 0,0"
               style="fill:#40b7b3;fill-opacity:1;fill-rule:nonzero;stroke:none"
               id="path893" />
          </g>
          <g
             id="g895"
             transform="translate(184.5903,825.3916)">
            <path
               d="m 0,0 c 0,36.72 29.874,66.593 66.591,66.593 19.272,0 37.049,-8.137 49.477,-21.984 C 104.808,38.151 94.1,30.85 84.033,22.766 c -5.121,4.667 -11.917,7.529 -19.374,7.529 -15.917,0 -28.805,-12.921 -28.805,-28.808 0,-7.602 2.959,-14.515 7.779,-19.668 C 35.813,-28.179 28.731,-38.777 22.495,-49.917 8.342,-37.474 0,-19.513 0,0"
               style="fill:#ffffff;fill-opacity:1;fill-rule:nonzero;stroke:none"
               id="path897" />
          </g>
          <g
             id="g899"
             transform="translate(175.5796,541.2861)">
            <path
               d="m 0,0 v -74.397 l -29.096,-26.196 c -11.312,-10.184 -28.805,-9.282 -39.02,2.03 -4.189,4.67 -6.509,10.373 -6.992,16.205 -0.678,8.283 2.384,16.818 9.021,22.814 l 56.999,51.361 z"
               style="fill:#8195a5;fill-opacity:1;fill-rule:nonzero;stroke:none"
               id="path901" />
          </g>
          <g
             id="g903"
             transform="translate(350.6729,179.1162)">
            <path
               d="m 0,0 v -29.516 c 0,-15.209 -12.405,-27.614 -27.614,-27.614 -1.579,0 -3.126,0.128 -4.608,0.389 -0.516,0.095 -0.999,0.191 -1.482,0.289 -0.484,0.095 -0.966,0.224 -1.449,0.389 -0.259,0.06 -0.516,0.125 -0.742,0.221 -0.355,0.098 -0.71,0.197 -1.063,0.322 -2.675,0.966 -5.157,2.354 -7.38,4.061 -0.772,0.58 -1.514,1.225 -2.224,1.871 -0.708,0.675 -1.385,1.385 -2.029,2.126 -4.158,4.8 -6.67,11.084 -6.67,17.946 v 54.36 C -38.087,14.435 -19.559,6.023 0,0"
               style="fill:#8195a5;fill-opacity:1;fill-rule:nonzero;stroke:none"
               id="path905" />
          </g>
          <g
             id="g907"
             transform="translate(552.7983,204.4424)">
            <path
               d="m 0,0 v -54.842 c 0,-6.864 -2.512,-13.148 -6.67,-17.945 -5.091,-5.932 -12.6,-9.668 -20.977,-9.668 -15.209,0 -27.614,12.404 -27.614,27.613 V -25.07 C -35.703,-18.98 -17.174,-10.473 0,0"
               style="fill:#8195a5;fill-opacity:1;fill-rule:nonzero;stroke:none"
               id="path909" />
          </g>
          <g
             id="g911"
             transform="translate(737.9121,578.2773)">
            <path
               d="m 0,0 -66.121,-59.544 v 74.398 l 7.187,6.445 21.91,19.72 C -25.713,51.23 -8.187,50.329 1.998,39.02 12.211,27.711 11.309,10.215 0,0"
               style="fill:#8195a5;fill-opacity:1;fill-rule:nonzero;stroke:none"
               id="path913" />
          </g>
          <g
             id="g915"
             transform="translate(486.2388,603.7139)">
            <path
               d="m 0,0 c -0.227,19.868 -28.133,35.938 -62.547,35.938 -34.412,0 -62.317,-16.07 -62.545,-35.938 -21.13,-5.819 -36.717,-25.152 -36.717,-48.107 0,-20.545 12.474,-38.218 30.239,-45.877 v -25.138 c 0,-22.14 18.012,-40.151 40.152,-40.151 11.334,0 21.564,4.74 28.874,12.32 7.306,-7.58 17.539,-12.32 28.871,-12.32 22.139,0 40.152,18.011 40.152,40.151 v 25.138 c 17.764,7.659 30.238,25.332 30.238,45.877 C 36.717,-25.152 21.133,-5.819 0,0"
               style="fill:#000000;fill-opacity:1;fill-rule:nonzero;stroke:none"
               id="path917" />
          </g>
          <g
             id="g919"
             transform="translate(394.8203,466.9951)">
            <path
               d="M 0,0 C -9.701,0 -17.596,7.896 -17.596,17.598 V 38.667 H 17.596 V 17.598 C 17.596,7.896 9.701,0 0,0"
               style="fill:#ffffff;fill-opacity:1;fill-rule:nonzero;stroke:none"
               id="path921" />
          </g>
          <g
             id="g923"
             transform="translate(470.1611,484.5928)">
            <path
               d="m 0,0 c 0,-9.701 -7.892,-17.599 -17.596,-17.599 -9.701,0 -17.595,7.898 -17.595,17.599 V 21.069 H 0 Z"
               style="fill:#ffffff;fill-opacity:1;fill-rule:nonzero;stroke:none"
               id="path925" />
          </g>
          <g
             id="g927"
             transform="translate(473.0127,528.2158)">
            <path
               d="m 0,0 h -38.041 -22.554 -38.044 c -15.104,0 -27.388,12.29 -27.388,27.39 0,14.39 11.165,26.203 25.288,27.281 11.293,-9.415 30.098,-15.592 51.42,-15.592 21.319,0 40.124,6.177 51.42,15.592 C 16.223,53.593 27.389,41.78 27.389,27.39 27.389,12.29 15.102,0 0,0"
               style="fill:#8195a5;fill-opacity:1;fill-rule:nonzero;stroke:none"
               id="path929" />
          </g>
          <g
             id="g931"
             transform="translate(361.7524,555.6055)">
            <path
               d="m 0,0 c 0,10.512 5.973,19.628 14.69,24.21 -1.475,0.981 -2.885,1.999 -4.171,3.072 C -3.601,26.201 -14.767,14.392 -14.767,0 c 0,-15.101 12.286,-27.389 27.387,-27.389 H 27.389 C 12.288,-27.389 0,-15.101 0,0"
               style="fill:#ffffff;fill-opacity:1;fill-rule:nonzero;stroke:none"
               id="path933" />
          </g>
          <g
             id="g935"
             transform="translate(737.9121,578.2773)">
            <path
               d="m 0,0 -66.121,-59.544 v 74.398 l 7.187,6.445 c 0,0 7.105,-41.767 45.223,-15.475 0,0 22.791,15.909 15.709,33.196 C 12.211,27.711 11.309,10.215 0,0"
               style="fill:#5e7280;fill-opacity:1;fill-rule:nonzero;stroke:none"
               id="path937" />
          </g>
          <g
             id="g939"
             transform="translate(175.5796,541.2861)">
            <path
               d="m 0,0 v -74.397 l -29.096,-26.196 c -11.312,-10.184 -28.805,-9.282 -39.02,2.03 -4.189,4.67 -6.509,10.373 -6.992,16.205 15.755,-17.111 41.532,9.377 41.532,9.377 25.36,20.557 24.488,64.798 24.488,64.798 z"
               style="fill:#5e7280;fill-opacity:1;fill-rule:nonzero;stroke:none"
               id="path941" />
          </g>
          <g
             id="g943"
             transform="translate(525.1514,153.7568)">
            <path
               d="M 0,0 C 0,0 -1.257,-28.098 20.977,-22.102 15.886,-28.033 8.377,-31.77 0,-31.77 c -15.208,0 -27.614,12.406 -27.614,27.614 v 29.771 c 19.559,6.09 38.087,14.598 55.261,25.071 V 40.279 C 27.647,40.279 0,26.777 0,0"
               style="fill:#5e7280;fill-opacity:1;fill-rule:nonzero;stroke:none"
               id="path945" />
          </g>
          <g
             id="g947"
             transform="translate(350.6729,179.1162)">
            <path
               d="m 0,0 v -29.516 c 0,-15.209 -12.405,-27.614 -27.614,-27.614 -1.579,0 -3.126,0.128 -4.608,0.389 -0.516,0.095 -0.999,0.191 -1.482,0.289 -0.484,0.095 -0.966,0.224 -1.449,0.389 -0.259,0.06 -0.516,0.125 -0.742,0.221 -0.355,0.098 -0.71,0.197 -1.063,0.322 -2.675,0.966 -5.157,2.354 -7.38,4.061 -0.772,0.58 -1.514,1.225 -2.224,1.871 -0.708,0.675 -1.385,1.385 -2.029,2.126 22.234,-5.995 20.977,22.102 20.977,22.102 0,26.778 -27.647,40.28 -27.647,40.28 v 9.924 C -38.087,14.435 -19.559,6.023 0,0"
               style="fill:#5e7280;fill-opacity:1;fill-rule:nonzero;stroke:none"
               id="path949" />
          </g>
          <g
             id="g951"
             transform="translate(420.0596,617.2969)">
            <path
               d="m 0,0 c 0,-4.894 -6.92,-8.86 -15.459,-8.86 -8.539,0 -15.459,3.966 -15.459,8.86 0,4.895 6.92,8.861 15.459,8.861 C -6.92,8.861 0,4.895 0,0"
               style="fill:#ffffff;fill-opacity:1;fill-rule:nonzero;stroke:none"
               id="path953" />
          </g>
          <g
             id="g955"
             transform="translate(649.2461,654.6748)">
            <path
               d="m 0,0 v -238.438 c 0,-78.106 -39.922,-147.094 -100.435,-187.596 -3.642,-2.417 -7.345,-4.736 -11.115,-6.959 -15.66,-9.216 -32.513,-16.564 -50.267,-21.784 122.281,59.547 122.281,202.868 122.281,202.868 v 90.834 c 0,59.061 -54.034,74.397 -54.034,74.397 L -148.832,65.54 c 101.532,17.752 22.554,99.5 22.554,99.5 -53.485,58.384 -42.209,97.856 -42.209,97.856 0,0 -1.868,-36.024 50.362,-64.604 l 1.063,-0.58 C -47.333,159.303 0,85.065 0,0"
               style="fill:#40b7b3;fill-opacity:1;fill-rule:nonzero;stroke:none"
               id="path957" />
          </g>
          <g
             id="g959"
             transform="translate(261.5239,406.7627)">
            <path
               d="m 0,0 v 87.498 c 0,63.234 42.015,73.764 42.015,73.764 L 51.279,196.328 0,199.508 v 57.911 c 0,19.298 2.093,37.499 5.812,54.688 l 67.658,3.174 c 0,0 -70.552,19.856 -34.668,78.181 33.15,53.947 81.593,92.438 121.083,117.349 C 91.994,476.138 46.27,443.208 27.453,428.74 c -0.902,-0.708 -1.741,-1.354 -2.515,-1.965 -0.644,-0.453 -1.288,-0.935 -1.899,-1.482 h -0.033 c -0.547,-0.386 -1.063,-0.806 -1.58,-1.288 -0.449,-0.292 -0.871,-0.645 -1.321,-1.064 -0.674,-0.516 -1.385,-1.063 -2.062,-1.676 C -31.675,379.892 -63.381,317.543 -63.381,247.912 V 9.474 c 0,-1.677 0.031,-3.351 0.064,-5.028 0.033,-1.546 0.064,-3.125 0.161,-4.672 v -0.419 c 0.064,-1.16 0.097,-2.32 0.195,-3.45 0.03,-0.741 0.064,-1.482 0.13,-2.22 0.094,-1.258 0.191,-2.482 0.289,-3.706 0.033,-0.322 0.063,-0.644 0.094,-0.936 0.1,-1.352 0.228,-2.673 0.388,-3.994 0.708,-6.703 1.741,-13.31 3.029,-19.817 0.291,-1.419 0.58,-2.836 0.902,-4.254 0.033,-0.126 0.064,-0.29 0.097,-0.448 0.289,-1.357 0.614,-2.709 0.936,-4.03 0.835,-3.481 1.771,-6.927 2.77,-10.341 0.386,-1.356 0.805,-2.709 1.224,-4.03 1.418,-4.544 2.965,-8.988 4.672,-13.404 0.386,-1.031 0.805,-2.06 1.224,-3.123 0.355,-0.905 0.71,-1.805 1.097,-2.676 0.419,-0.999 0.868,-2.03 1.321,-3.06 0.611,-1.451 1.255,-2.869 1.932,-4.318 0.644,-1.421 1.321,-2.837 1.999,-4.256 1.384,-2.834 2.803,-5.605 4.285,-8.374 0.741,-1.357 1.483,-2.676 2.224,-4.028 0.838,-1.485 1.707,-2.967 2.576,-4.416 0.71,-1.194 1.418,-2.385 2.159,-3.545 0.064,-0.13 0.128,-0.256 0.195,-0.353 1.643,-2.612 3.317,-5.157 5.026,-7.703 0.903,-1.288 1.805,-2.578 2.674,-3.866 3.641,-5.058 7.445,-9.987 11.439,-14.724 31.158,-36.862 73.884,-63.638 122.506,-74.691 C 45.174,-168.166 0,-89.707 0,0"
               style="fill:#ffffff;fill-opacity:1;fill-rule:nonzero;stroke:none"
               id="path961" />
          </g>
          <g
             id="g963"
             transform="translate(671.6021,729.4648)">
            <path
               d="m 0,0 c -72.952,6.366 -141.142,-1.973 -202.062,-15.485 -16.241,-3.604 -28.643,-11.549 -46.203,-11.431 v 0.01 h -0.442 -0.427 v -0.01 c -17.557,-0.118 -29.96,7.827 -46.204,11.431 -60.919,13.512 -129.11,21.851 -202.058,15.485 1.035,-9.308 -1.917,-22.285 1.584,-31.831 2.809,-7.631 10.966,-9.671 14.207,-16.349 6.151,-12.663 7.751,-27.984 11.833,-41.299 3.971,-12.929 8.515,-26.341 15.791,-37.006 23.564,-34.537 105.889,-49.26 144.436,-17.198 4.631,3.844 9.811,10.33 14.619,17.469 0.961,1.426 1.896,2.872 2.819,4.337 7.015,12.052 12.55,24.966 16.409,38.107 0.65,1.973 1.322,3.908 2.03,5.753 0.521,1.396 1.063,2.732 1.633,4.002 1.937,5.497 5.89,8.074 9.831,10.662 11.838,6.014 30.786,3.438 37.119,-10.682 0.56,-1.329 1.017,-2.681 1.352,-3.982 0.708,-1.845 1.382,-3.78 2.039,-5.753 3.864,-13.141 9.39,-26.055 16.397,-38.107 0.93,-1.465 1.861,-2.911 2.819,-4.337 4.812,-7.139 9.998,-13.625 14.624,-17.469 38.554,-32.062 120.875,-17.339 144.438,17.198 7.269,10.665 11.817,24.077 15.791,37.006 4.084,13.315 5.689,28.636 11.831,41.299 3.24,6.678 11.406,8.718 14.209,16.349 C 1.924,-22.285 -1.038,-9.308 0,0"
               style="fill:#000000;fill-opacity:1;fill-rule:nonzero;stroke:none"
               id="path965" />
          </g>
          <g
             id="g967"
             transform="translate(467.3423,680.5977)">
            <path
               d="m 0,0 c 5.522,14.683 25.615,20.049 42.695,24.207 19.091,4.654 41.882,6.361 60.375,6.055 14.835,-0.245 28.779,-0.212 39.298,-2.924 -5.479,0.183 -11.227,0.24 -17.113,0.337 C 105.81,27.997 81.845,26.2 61.77,21.309 43.812,16.937 22.684,11.293 16.875,-4.146 12.972,-14.564 16.481,-29.217 18.418,-37.553 23.21,-58.052 31.976,-77.626 47.04,-88.357 41.708,-86.908 36.76,-84.958 32.385,-82.464 15.768,-72.984 6.402,-52.887 1.467,-31.772 -0.374,-23.842 -3.713,-9.908 0,0"
               style="fill:#ffffff;fill-opacity:1;fill-rule:nonzero;stroke:none"
               id="path969" />
          </g>
          <g
             id="g971"
             transform="translate(235.1372,687.8691)">
            <path
               d="m 0,0 c 8.876,12.681 31.841,12.311 57.291,12.729 19.445,0.323 43.41,-1.474 63.485,-6.366 4.692,-1.142 9.601,-2.374 14.398,-3.841 -8.873,7.069 -22.51,10.634 -34.634,13.586 C 81.449,20.762 58.658,22.47 40.165,22.162 15.963,21.764 -5.878,22.116 -14.319,10.057 -28.831,-10.69 -12.461,-60.827 -1.061,-74.687 2.001,-78.405 6.08,-81.786 10.902,-84.779 -0.657,-66.077 -14.005,-20.023 0,0"
               style="fill:#ffffff;fill-opacity:1;fill-rule:nonzero;stroke:none"
               id="path973" />
          </g>
        </g>
      </g>
      <g
         id="g975">
        <g
           id="g977"
           clip-path="url(#clipPath981)">
          <g
             id="g983"
             transform="translate(727.9121,581.3467)">
            <path
               d="m 0,0 c -4.646,-5.699 -12.89,-6.132 -17.503,-1.948 -4.892,4.435 -4.94,13.371 1.095,18.356 C 323.898,351.217 492.726,514.574 495.445,511.854 498.166,509.135 334.809,340.308 0,0"
               style="fill:#333333;fill-opacity:1;fill-rule:nonzero;stroke:none"
               id="path985" />
          </g>
        </g>
      </g>
      <text
         transform="matrix(1,0,0,-1,1708.2734,1800.8994)"
         style="font-variant:normal;font-weight:normal;font-stretch:normal;font-size:93.1065px;font-family:'Comic Sans MS';-inkscape-font-specification:ComicSansMS;writing-mode:lr-tb;fill:#ffffff;fill-opacity:1;fill-rule:nonzero;stroke:none"
         id="text989"><tspan
           x="0 63.31242 117.12798 168.15034 195.98918 244.45111 289.14224 315.21207 363.90677 411.76349 437.83331 487.64529 513.15649 564.17883 609.52173 637.36053 686.33459 733.63269 761.4715 819.61652 882.92896"
           y="0"
           sodipodi:role="line"
           id="tspan987">The Principles of EGo</tspan></text>
      <g
         id="g991">
        <g
           id="g993"
           clip-path="url(#clipPath997)">
          <g
             id="g999"
             transform="translate(2391.166,1430.915)">
            <path
               d="m 0,0 c 0,-126.162 -102.275,-228.437 -228.437,-228.437 -126.163,0 -228.438,102.275 -228.438,228.437 0,126.162 102.275,228.437 228.438,228.437 C -102.275,228.437 0,126.162 0,0 Z"
               style="fill:none;stroke:#ffffff;stroke-width:4.913;stroke-linecap:butt;stroke-linejoin:miter;stroke-miterlimit:10;stroke-dasharray:none;stroke-opacity:1"
               id="path1001" />
          </g>
          <path
             d="m 2298.071,1496.499 h -270.686 v 83.023 h 270.686 z"
             style="fill:none;stroke:#ffffff;stroke-width:4.913;stroke-linecap:butt;stroke-linejoin:miter;stroke-miterlimit:10;stroke-dasharray:none;stroke-opacity:1"
             id="path1003" />
          <path
             d="m 2298.071,1389.403 h -270.686 v 83.023 h 270.686 z"
             style="fill:none;stroke:#ffffff;stroke-width:4.913;stroke-linecap:butt;stroke-linejoin:miter;stroke-miterlimit:10;stroke-dasharray:none;stroke-opacity:1"
             id="path1005" />
          <path
             d="m 2299.442,1282.309 h -270.686 v 83.023 h 270.686 z"
             style="fill:none;stroke:#ffffff;stroke-width:4.913;stroke-linecap:butt;stroke-linejoin:miter;stroke-miterlimit:10;stroke-dasharray:none;stroke-opacity:1"
             id="path1007" />
        </g>
      </g>
      <text
         transform="matrix(1,0,0,-1,2050.4858,1517.6211)"
         style="font-variant:normal;font-weight:normal;font-stretch:normal;font-size:48px;font-family:'Comic Sans MS';-inkscape-font-specification:ComicSansMS;writing-mode:lr-tb;fill:#ffffff;fill-opacity:1;fill-rule:nonzero;stroke:none"
         id="text1029"><tspan
           x="0 30.48 55.728001 80.688004 103.728 118.08 152.73599 177.312 199.92"
           y="0"
           sodipodi:role="line"
           id="tspan1009">Your Data</tspan><tspan
           x="-1.152 29.327999 54.576 79.536003 102.576 116.928 145.87199 171.12 199.29601"
           y="107.088"
           sodipodi:role="line"
           id="tspan1011">Your Code</tspan><tspan
           x="-12.48 20.16 45.408001 59.759998 89.903999 114.864 139.968 162.576 176.01601 213.312"
           y="214.17599"
           sodipodi:role="line"
           id="tspan1013">Go Runtime</tspan><tspan
           x="92.496002 130.8"
           y="412.56"
           sodipodi:role="line"
           id="tspan1015">OS</tspan><tspan
           x="5.6160002 42.48 67.487999 93.167999 119.472 142.51199 165.84 179.28 202.65601 227.90401"
           y="534.86401"
           sodipodi:role="line"
           id="tspan1017">Hypervisor</tspan><tspan
           x="-793.91998 -760.65601 -734.35199 -709.67999 -684.71997 -661.67999 -635.37598 -621.02399 -592.08002 -564.336 -539.76001 -514.65601 -489.552 -463.24799"
           y="98.255997"
           sodipodi:role="line"
           id="tspan1019">Secure Channel</tspan><tspan
           x="-685.776 -668.20801 -635.56799 -609.12 -575.85602"
           y="155.856"
           sodipodi:role="line"
           id="tspan1021">(TLS)</tspan><tspan
           x="-725.08801 -689.71198 -666.336 -640.03198"
           y="684.23999"
           sodipodi:role="line"
           id="tspan1023">User</tspan><tspan
           x="702.38397 737.76001 762.86401 785.47198 808.51202 833.47198 856.84802 879.45599 905.76001 933.93597 948.28802 977.23199 1002.48 1039.776 1065.4561 1090.416 1113.024 1139.328"
           y="-36.48"
           sodipodi:role="line"
           id="tspan1025">Untrusted Computer</tspan><tspan
           x="854.59198 872.15997 901.104 914.25598 939.50403 964.46399 992.64001"
           y="21.120001"
           sodipodi:role="line"
           id="tspan1027">(Cloud)</tspan></text>
      <text
         transform="matrix(1,0,0,-1,1624.5674,1629.5332)"
         style="font-variant:normal;font-weight:normal;font-stretch:normal;font-size:49.7853px;font-family:'Comic Sans MS';-inkscape-font-specification:ComicSansMS;writing-mode:lr-tb;fill:#ffffff;fill-opacity:1;fill-rule:nonzero;stroke:none"
         id="text1033"><tspan
           x="0 34.501213 61.783558 87.373199 113.26156 137.15851 164.44084 179.32664 210.41757 236.45528 262.04492 275.6861 301.17618 325.37183"
           y="0"
           sodipodi:role="line"
           id="tspan1031">Secure Enclave</tspan></text>
      <g
         id="g1035">
        <g
           id="g1037"
           clip-path="url(#clipPath1041)">
          <path
             d="m 2378.639,1074.75 h -399.396 v 93.831 h 399.396 z"
             style="fill:none;stroke:#ffffff;stroke-width:4.913;stroke-linecap:butt;stroke-linejoin:miter;stroke-miterlimit:10;stroke-dasharray:none;stroke-opacity:1"
             id="path1043" />
          <path
             d="m 2378.639,946.039 h -399.396 v 93.831 h 399.396 z"
             style="fill:none;stroke:#ffffff;stroke-width:4.913;stroke-linecap:butt;stroke-linejoin:miter;stroke-miterlimit:10;stroke-dasharray:none;stroke-opacity:1"
             id="path1045" />
          <path
             d="M 2715,904.281 H 1613.404 v 780.126 H 2715 Z"
             style="fill:none;stroke:#ffffff;stroke-width:8.195;stroke-linecap:butt;stroke-linejoin:miter;stroke-miterlimit:10;stroke-dasharray:none;stroke-opacity:1"
             id="path1047" />
          <g
             id="g1049"
             transform="translate(1445.8066,1138.916)">
            <path
               d="m 0,0 c 2.729,1.377 20.947,-27.95 23.676,-26.573 2.729,1.377 -10.03,33.457 -7.3,34.834 2.728,1.377 20.947,-27.95 23.676,-26.573 2.729,1.376 -10.03,33.457 -7.301,34.833 2.729,1.377 20.947,-27.95 23.677,-26.573 2.729,1.377 -10.03,33.458 -7.301,34.834 2.729,1.377 20.947,-27.95 23.677,-26.573 2.729,1.377 -10.031,33.458 -7.301,34.835 C 68.232,34.42 86.45,5.093 89.18,6.47 c 2.729,1.377 -10.031,33.458 -7.301,34.835 2.729,1.377 20.947,-27.951 23.677,-26.575 2.729,1.377 -10.031,33.458 -7.301,34.835 2.729,1.377 20.947,-27.95 23.677,-26.573 2.729,1.376 -10.031,33.457 -7.301,34.834 2.729,1.377 20.947,-27.95 23.677,-26.573 2.729,1.377 -10.031,33.457 -7.301,34.834 2.729,1.377 20.947,-27.95 23.677,-26.573 2.729,1.377 -10.031,33.457 -7.301,34.834 2.729,1.377 20.947,-27.951 23.677,-26.574 2.728,1.377 -10.031,33.458 -7.301,34.834 2.729,1.377 20.947,-27.95 23.677,-26.573 2.728,1.377 -10.031,33.458 -7.301,34.835 2.728,1.376 20.947,-27.95 23.676,-26.574 2.729,1.377 -10.03,33.458 -7.301,34.835 2.729,1.377 20.948,-27.95 23.677,-26.573 2.729,1.376 -10.03,33.457 -7.301,34.834 2.729,1.377 20.947,-27.951 23.676,-26.574 2.73,1.377 -10.03,33.457 -7.3,34.834 2.729,1.377 20.947,-27.95 23.676,-26.573 2.73,1.377 -10.03,33.457 -7.3,34.834 2.729,1.377 20.947,-27.95 23.676,-26.573 2.73,1.377 -10.03,33.457 -7.3,34.834 2.729,1.377 20.947,-27.95 23.676,-26.573 2.73,1.377 -10.03,33.458 -7.3,34.834 2.729,1.377 20.947,-27.951 23.676,-26.574 2.73,1.377 -10.03,33.458 -7.3,34.835 2.729,1.376 20.947,-27.95 23.676,-26.574 2.73,1.377 -10.03,33.458 -7.3,34.835 2.729,1.377 20.947,-27.95 23.676,-26.573 2.73,1.376 -10.03,33.457 -7.3,34.834 2.729,1.377 20.947,-27.95 23.676,-26.573 2.729,1.376 -10.03,33.457 -7.3,34.834 2.728,1.376 20.947,-27.951 23.676,-26.574 2.729,1.377 -10.03,33.457 -7.3,34.834 2.728,1.377 20.947,-27.95 23.675,-26.573 2.73,1.377 -10.029,33.458 -7.3,34.834 2.729,1.377 20.948,-27.95 23.676,-26.573 2.73,1.377 -10.029,33.458 -7.3,34.835 2.729,1.376 20.947,-27.95 23.676,-26.575 2.73,1.377 -10.03,33.459 -7.301,34.835 2.73,1.377 20.948,-27.95 23.677,-26.573 2.73,1.376 -10.03,33.457 -7.301,34.834 2.73,1.377 20.948,-27.95 23.677,-26.573 2.73,1.377 -10.03,33.457 -7.301,34.834 2.73,1.377 20.948,-27.95 23.677,-26.573 2.73,1.377 -10.03,33.457 -7.301,34.834 2.73,1.377 20.948,-27.951 23.677,-26.574 2.73,1.377 -10.03,33.457 -7.301,34.834 2.73,1.377 20.948,-27.95 23.677,-26.573 2.73,1.377 -10.03,33.458 -7.301,34.834 2.73,1.377 20.948,-27.95 23.677,-26.573 2.73,1.377 -10.03,33.458 -7.301,34.835 2.73,1.376 20.948,-27.95 23.677,-26.574 2.729,1.377 -10.03,33.458 -7.301,34.835 2.729,1.377 20.948,-27.951 23.677,-26.574 2.729,1.376 -10.03,33.457 -7.301,34.834 2.729,1.377 20.948,-27.95 23.676,-26.573 2.73,1.377 -10.029,33.457 -7.301,34.834 2.73,1.377 20.949,-27.95 23.677,-26.573 2.73,1.377 -10.029,33.457 -7.301,34.834"
               style="fill:none;stroke:#ffffff;stroke-width:1.474;stroke-linecap:butt;stroke-linejoin:miter;stroke-miterlimit:10;stroke-dasharray:none;stroke-opacity:1"
               id="path1051" />
          </g>
          <g
             id="g1053"
             transform="translate(2027.3857,1392.2354)">
            <path
               d="m 0,0 c -191.347,-96.059 -382.693,-192.116 -574.039,-288.175 -2.821,12.235 -5.641,24.47 -8.462,36.704 C -388.334,-154.35 -194.167,-57.228 0,39.894 Z"
               style="fill:none;stroke:#ffffff;stroke-width:1.474;stroke-linecap:butt;stroke-linejoin:miter;stroke-miterlimit:10;stroke-dasharray:none;stroke-opacity:1"
               id="path1055" />
          </g>
          <g
             id="g1057"
             transform="translate(1459.5117,1327.1826)">
            <path
               d="M 0,0 C 35.62,-41.296 71.241,-82.591 106.862,-123.886"
               style="fill:none;stroke:#ffffff;stroke-width:3;stroke-linecap:butt;stroke-linejoin:miter;stroke-miterlimit:10;stroke-dasharray:none;stroke-opacity:1"
               id="path1059" />
          </g>
          <g
             id="g1061"
             transform="translate(2686.9395,1317.4307)">
            <path
               d="M 0,0 242.685,144.745"
               style="fill:none;stroke:#ffffff;stroke-width:3;stroke-linecap:butt;stroke-linejoin:miter;stroke-miterlimit:10;stroke-dasharray:none;stroke-opacity:1"
               id="path1063" />
          </g>
          <g
             id="g1065"
             transform="translate(1336.5137,1250.6992)">
            <path
               d="m 0,0 c 0.163,-2.226 0.239,-4.582 0.52,-6.913 3.084,-25.665 26.482,-43.995 49.376,-38.354 19.226,4.739 31.291,16.976 34.67,36.556 3.091,17.908 -2.504,33.126 -17.38,44.06 C 51.278,47.04 35.272,45.046 19.297,34.893 6.448,26.728 0.47,15.035 0,0 M 43.081,-223.445 C 32.629,-248.126 22.805,-270.97 13.277,-293.936 5.534,-312.604 -1.777,-331.45 -9.46,-350.144 c -1.594,-3.876 -3.275,-8.197 -6.221,-10.887 -2.485,-2.272 -7.081,-3.818 -10.347,-3.281 -4.832,0.795 -6.326,5.597 -5.254,10.079 1.581,6.603 3.396,13.246 6.023,19.489 17.686,42.037 35.633,83.966 53.414,125.963 1.171,2.766 2.364,5.813 2.376,8.734 0.161,36.454 0.106,72.908 0.106,110.974 -2.599,-1.888 -4.084,-2.72 -5.27,-3.864 -25.399,-24.505 -50.706,-49.108 -76.213,-73.501 -3.134,-2.998 -7.054,-5.64 -11.098,-7.041 -2.294,-0.794 -6.122,0.61 -8.197,2.315 -1.091,0.898 -0.798,5.25 0.424,6.869 4.194,5.56 8.705,10.99 13.755,15.774 28.007,26.535 56.266,52.802 84.289,79.319 4.939,4.673 3.027,11.273 -3.3,13.181 -23.449,7.073 -39.268,30.381 -38.721,57.055 0.508,24.757 17.811,46.963 41.232,52.916 27.651,7.029 58.323,-8.813 68.991,-35.635 10.236,-25.733 -1.152,-56.205 -26.348,-70.238 -2.437,-1.357 -5.156,-2.278 -7.832,-3.121 -8.923,-2.811 -10.247,-8.428 -3.294,-15.144 22.848,-22.073 45.73,-44.111 68.683,-66.075 5.265,-5.038 10.966,-9.619 16.276,-14.613 3.414,-3.212 6.807,-6.549 9.603,-10.284 2.432,-3.247 5.546,-6.926 1.551,-11.299 -3.96,-4.335 -8.064,-1.606 -11.438,0.428 -4.163,2.51 -7.908,5.859 -11.424,9.267 -24.661,23.902 -49.216,47.913 -73.819,71.874 -0.602,0.586 -1.373,0.999 -2.847,2.053 -0.172,-2.973 -0.388,-4.974 -0.389,-6.976 -0.019,-33.878 -0.055,-67.758 0.067,-101.637 0.012,-3.197 0.496,-6.619 1.7,-9.552 16.145,-39.375 32.413,-78.699 48.774,-117.985 2.617,-6.284 6.046,-12.227 8.736,-18.484 4.541,-10.56 3.699,-18.525 -1.877,-21.097 -5.29,-2.442 -13.254,3.917 -17.205,13.628 -15.68,38.534 -31.38,77.06 -47.099,115.579 -1.409,3.45 -3.008,6.822 -5.266,11.916"
               style="fill:#ffffff;fill-opacity:1;fill-rule:nonzero;stroke:none"
               id="path1067" />
          </g>
          <g
             id="g1069"
             transform="translate(1628,1622.5)">
            <path
               d="m 0,0 h 348 l 27.48,-27.48"
               style="fill:none;stroke:#ffffff;stroke-width:3;stroke-linecap:butt;stroke-linejoin:miter;stroke-miterlimit:10;stroke-dasharray:none;stroke-opacity:1"
               id="path1071" />
          </g>
        </g>
      </g>
    </g>
  </g>
</svg>
