<?xml version="1.0" encoding="UTF-8" standalone="no"?>
<svg
   xmlns:dc="http://purl.org/dc/elements/1.1/"
   xmlns:cc="http://creativecommons.org/ns#"
   xmlns:rdf="http://www.w3.org/1999/02/22-rdf-syntax-ns#"
   xmlns:svg="http://www.w3.org/2000/svg"
   xmlns="http://www.w3.org/2000/svg"
   xmlns:sodipodi="http://sodipodi.sourceforge.net/DTD/sodipodi-0.dtd"
   xmlns:inkscape="http://www.inkscape.org/namespaces/inkscape"
   width="133.85236mm"
   height="90.714684mm"
   viewBox="0 0 133.85236 90.714687"
   version="1.1"
   id="svg8"
   inkscape:version="1.0.1 (3bc2e813f5, 2020-09-07)"
   sodipodi:docname="text_only.svg">
  <defs
     id="defs2">
    <clipPath
       clipPathUnits="userSpaceOnUse"
       id="clipPath849">
      <path
         d="m 501.464,382.408 v 250.818 h 107.67 v -37.815 h -69.855 v -44.769 h 75.41 v -37.814 h -75.41 v -92.604 h 69.855 v -37.816 z"
         id="path847" />
    </clipPath>
    <linearGradient
       x1="0"
       y1="0"
       x2="1"
       y2="0"
       gradientUnits="userSpaceOnUse"
       gradientTransform="matrix(0,-239.28563,-239.28563,0,558.07678,659.77399)"
       spreadMethod="pad"
       id="linearGradient859">
      <stop
         style="stop-opacity:1;stop-color:#858383"
         offset="0"
         id="stop855" />
      <stop
         style="stop-opacity:1;stop-color:#231f20"
         offset="1"
         id="stop857" />
    </linearGradient>
    <clipPath
       clipPathUnits="userSpaceOnUse"
       id="clipPath869">
      <path
         d="M 642.532,618.856 C 630.796,607.168 624.93,593.026 624.93,576.435 v 0 -137.374 c 0,-16.41 5.821,-30.481 17.464,-42.215 v 0 c 11.641,-11.736 25.804,-17.601 42.491,-17.601 v 0 c 16.408,0 30.479,5.797 42.214,17.396 v 0 c 11.735,11.595 17.603,25.735 17.603,42.42 v 0 111.581 h -72.569 v -37.814 h 33.378 v -73.354 c 0,-6.05 -2.131,-11.185 -6.394,-15.401 v 0 c -4.262,-4.218 -9.42,-6.325 -15.47,-6.325 v 0 c -5.96,0 -11.048,2.107 -15.263,6.325 v 0 c -4.219,4.216 -6.326,9.351 -6.326,15.401 v 0 137.648 c 0,6.05 2.107,11.207 6.326,15.469 v 0 c 4.215,4.264 9.303,6.395 15.263,6.395 v 0 c 6.05,0 11.208,-2.131 15.47,-6.395 v 0 c 4.263,-4.262 6.394,-9.419 6.394,-15.469 v 0 -5.303 h 39.191 v 4.616 c 0,16.501 -5.799,30.617 -17.396,42.352 v 0 c -11.598,11.734 -25.738,17.602 -42.421,17.602 v 0 c -16.501,0 -30.62,-5.845 -42.353,-17.533"
         id="path867" />
    </clipPath>
    <linearGradient
       x1="0"
       y1="0"
       x2="1"
       y2="0"
       gradientUnits="userSpaceOnUse"
       gradientTransform="matrix(0,-239.28563,-239.28563,0,684.8161,659.77399)"
       spreadMethod="pad"
       id="linearGradient879">
      <stop
         style="stop-opacity:1;stop-color:#858383"
         offset="0"
         id="stop875" />
      <stop
         style="stop-opacity:1;stop-color:#231f20"
         offset="1"
         id="stop877" />
    </linearGradient>
    <clipPath
       clipPathUnits="userSpaceOnUse"
       id="clipPath889">
      <path
         d="m 778.718,533.167 c -11.735,-11.688 -17.601,-25.876 -17.601,-42.56 v 0 -51.269 c 0,-16.595 5.796,-30.758 17.395,-42.492 v 0 c 11.595,-11.736 25.69,-17.601 42.283,-17.601 v 0 c 16.592,0 30.756,5.844 42.491,17.533 v 0 c 11.735,11.688 17.602,25.873 17.602,42.56 v 0 51.269 c 0,16.592 -5.844,30.755 -17.533,42.492 v 0 C 851.667,544.831 837.48,550.7 820.795,550.7 v 0 c -16.317,0 -30.344,-5.845 -42.077,-17.533 M 804.5,424.345 c -4.261,4.212 -6.393,9.296 -6.393,15.25 v 0 51.718 c 0,6.043 2.132,11.151 6.393,15.319 v 0 c 4.263,4.167 9.373,6.252 15.334,6.252 v 0 c 6.049,0 11.159,-2.085 15.331,-6.252 v 0 c 4.172,-4.168 6.257,-9.276 6.257,-15.319 v 0 -51.718 c 0,-5.954 -2.085,-11.038 -6.257,-15.25 v 0 c -4.172,-4.216 -9.282,-6.322 -15.331,-6.322 v 0 c -5.961,0 -11.071,2.106 -15.334,6.322"
         id="path887" />
    </clipPath>
    <linearGradient
       x1="0"
       y1="0"
       x2="1"
       y2="0"
       gradientUnits="userSpaceOnUse"
       gradientTransform="matrix(0,-239.28563,-239.28563,0,821.0022,659.77399)"
       spreadMethod="pad"
       id="linearGradient899">
      <stop
         style="stop-opacity:1;stop-color:#858383"
         offset="0"
         id="stop895" />
      <stop
         style="stop-opacity:1;stop-color:#231f20"
         offset="1"
         id="stop897" />
    </linearGradient>
    <clipPath
       clipPathUnits="userSpaceOnUse"
       id="clipPath909">
      <path
         d="M 0,1080 H 1080 V 0 H 0 Z"
         id="path907" />
    </clipPath>
  </defs>
  <sodipodi:namedview
     id="base"
     pagecolor="#ffffff"
     bordercolor="#666666"
     borderopacity="1.0"
     inkscape:pageopacity="0.0"
     inkscape:pageshadow="2"
     inkscape:zoom="0.35"
     inkscape:cx="-115.23399"
     inkscape:cy="1439.4879"
     inkscape:document-units="mm"
     inkscape:current-layer="g841"
     inkscape:document-rotation="0"
     showgrid="true"
     inkscape:window-width="2471"
     inkscape:window-height="1411"
     inkscape:window-x="80"
     inkscape:window-y="-9"
     inkscape:window-maximized="1">
    <inkscape:grid
       type="xygrid"
       id="grid911"
       originx="-125.03595"
       originy="-19.922176" />
  </sodipodi:namedview>
  <metadata
     id="metadata5">
    <rdf:RDF>
      <cc:Work
         rdf:about="">
        <dc:format>image/svg+xml</dc:format>
        <dc:type
           rdf:resource="http://purl.org/dc/dcmitype/StillImage" />
        <dc:title></dc:title>
      </cc:Work>
    </rdf:RDF>
  </metadata>
  <g
     inkscape:label="Layer 1"
     inkscape:groupmode="layer"
     id="layer1"
     transform="translate(-30.138818,232.69784)">
    <g
       id="g841"
       inkscape:label="vector"
       transform="matrix(0.35277777,0,0,-0.35277777,-158.4082,-8.1939431)">
      <g
         id="g843"
         style="fill:#00010d;fill-opacity:1"
         transform="translate(33)">
        <g
           id="g845"
           clip-path="url(#clipPath849)"
           style="fill:#00010d;fill-opacity:1">
          <g
             id="g851"
             style="fill:#00010d;fill-opacity:1">
            <g
               id="g853"
               style="fill:#00010d;fill-opacity:1">
              <path
                 d="m 501.464,382.408 v 250.818 h 107.67 v -37.815 h -69.855 v -44.769 h 75.41 v -37.814 h -75.41 v -92.604 h 69.855 v -37.816 z"
                 style="fill:#00010d;fill-opacity:1;stroke:none"
                 id="path861" />
            </g>
          </g>
        </g>
      </g>
      <g
         id="g863"
         style="fill:#00010d;fill-opacity:1"
         transform="translate(33)">
        <g
           id="g865"
           clip-path="url(#clipPath869)"
           style="fill:#00010d;fill-opacity:1">
          <g
             id="g871"
             style="fill:#00010d;fill-opacity:1">
            <g
               id="g873"
               style="fill:#00010d;fill-opacity:1">
              <path
                 d="M 642.532,618.856 C 630.796,607.168 624.93,593.026 624.93,576.435 v 0 -137.374 c 0,-16.41 5.821,-30.481 17.464,-42.215 v 0 c 11.641,-11.736 25.804,-17.601 42.491,-17.601 v 0 c 16.408,0 30.479,5.797 42.214,17.396 v 0 c 11.735,11.595 17.603,25.735 17.603,42.42 v 0 111.581 h -72.569 v -37.814 h 33.378 v -73.354 c 0,-6.05 -2.131,-11.185 -6.394,-15.401 v 0 c -4.262,-4.218 -9.42,-6.325 -15.47,-6.325 v 0 c -5.96,0 -11.048,2.107 -15.263,6.325 v 0 c -4.219,4.216 -6.326,9.351 -6.326,15.401 v 0 137.648 c 0,6.05 2.107,11.207 6.326,15.469 v 0 c 4.215,4.264 9.303,6.395 15.263,6.395 v 0 c 6.05,0 11.208,-2.131 15.47,-6.395 v 0 c 4.263,-4.262 6.394,-9.419 6.394,-15.469 v 0 -5.303 h 39.191 v 4.616 c 0,16.501 -5.799,30.617 -17.396,42.352 v 0 c -11.598,11.734 -25.738,17.602 -42.421,17.602 v 0 c -16.501,0 -30.62,-5.845 -42.353,-17.533"
                 style="fill:#00010d;fill-opacity:1;stroke:none"
                 id="path881" />
            </g>
          </g>
        </g>
      </g>
      <g
         id="g883"
         style="fill:#00010d;fill-opacity:1"
         transform="translate(33)">
        <g
           id="g885"
           clip-path="url(#clipPath889)"
           style="fill:#00010d;fill-opacity:1">
          <g
             id="g891"
             style="fill:#00010d;fill-opacity:1">
            <g
               id="g893"
               style="fill:#00010d;fill-opacity:1">
              <path
                 d="m 778.718,533.167 c -11.735,-11.688 -17.601,-25.876 -17.601,-42.56 v 0 -51.269 c 0,-16.595 5.796,-30.758 17.395,-42.492 v 0 c 11.595,-11.736 25.69,-17.601 42.283,-17.601 v 0 c 16.592,0 30.756,5.844 42.491,17.533 v 0 c 11.735,11.688 17.602,25.873 17.602,42.56 v 0 51.269 c 0,16.592 -5.844,30.755 -17.533,42.492 v 0 C 851.667,544.831 837.48,550.7 820.795,550.7 v 0 c -16.317,0 -30.344,-5.845 -42.077,-17.533 M 804.5,424.345 c -4.261,4.212 -6.393,9.296 -6.393,15.25 v 0 51.718 c 0,6.043 2.132,11.151 6.393,15.319 v 0 c 4.263,4.167 9.373,6.252 15.334,6.252 v 0 c 6.049,0 11.159,-2.085 15.331,-6.252 v 0 c 4.172,-4.168 6.257,-9.276 6.257,-15.319 v 0 -51.718 c 0,-5.954 -2.085,-11.038 -6.257,-15.25 v 0 c -4.172,-4.216 -9.282,-6.322 -15.331,-6.322 v 0 c -5.961,0 -11.071,2.106 -15.334,6.322"
                 style="fill:#00010d;fill-opacity:1;stroke:none"
                 id="path901" />
            </g>
          </g>
        </g>
      </g>
    </g>
  </g>
</svg>
