<?xml version="1.0" standalone="no"?>
<!DOCTYPE svg PUBLIC "-//W3C//DTD SVG 20010904//EN"
 "http://www.w3.org/TR/2001/REC-SVG-20010904/DTD/svg10.dtd">
<svg version="1.0" xmlns="http://www.w3.org/2000/svg"
 width="996.000000pt" height="996.000000pt" viewBox="0 0 996.000000 996.000000"
 preserveAspectRatio="xMidYMid meet">
<metadata>
Created by potrace 1.11, written by Peter Selinger 2001-2013
</metadata>
<g transform="translate(0.000000,996.000000) scale(0.100000,-0.100000)"
fill="#000000" stroke="none">
<path d="M5300 9933 c-25 -8 -52 -17 -60 -20 -8 -4 -17 -7 -20 -7 -19 -5 -161
-62 -185 -75 -16 -9 -34 -16 -40 -17 -22 -2 -404 -187 -447 -217 -16 -10 -28
-15 -28 -11 0 4 -8 0 -17 -8 -10 -8 -31 -22 -48 -30 -98 -48 -592 -334 -613
-355 -7 -7 -18 -13 -24 -13 -6 0 -19 -7 -28 -15 -15 -13 -23 -8 -86 53 -79 77
-147 132 -163 132 -6 0 -11 4 -11 8 0 12 -157 89 -227 112 -32 10 -87 24 -123
30 -36 7 -74 15 -85 19 -25 8 -181 6 -259 -3 -100 -11 -264 -60 -326 -97 -8
-4 -31 -16 -50 -26 -19 -9 -39 -21 -45 -25 -5 -4 -39 -29 -75 -55 -172 -125
-320 -340 -377 -548 -41 -150 -46 -294 -18 -490 4 -30 26 -108 33 -120 4 -5 7
-17 9 -25 3 -23 45 -113 62 -132 8 -10 11 -18 7 -18 -4 0 17 -35 46 -77 53
-77 176 -210 212 -230 18 -10 18 -11 -2 -57 -12 -25 -18 -46 -14 -46 4 0 3 -4
-3 -8 -5 -4 -24 -47 -41 -97 -29 -83 -33 -90 -60 -92 -16 -1 -48 -4 -71 -6
-24 -2 -46 -6 -49 -10 -4 -3 -7 -77 -6 -164 0 -143 2 -163 23 -208 25 -55 25
-54 15 -137 -3 -32 -9 -84 -12 -115 -5 -46 -15 -268 -14 -308 6 -226 3 -732
-5 -737 -6 -5 -6 -8 0 -8 6 0 10 -33 9 -80 0 -77 -2 -82 -30 -108 -17 -15 -65
-58 -108 -97 -43 -38 -90 -81 -106 -95 -15 -14 -63 -56 -106 -95 -43 -38 -85
-77 -94 -85 -9 -8 -56 -51 -106 -95 -49 -44 -104 -94 -122 -112 -18 -18 -35
-33 -37 -33 -3 0 -33 -26 -67 -58 -35 -33 -78 -72 -96 -88 -48 -42 -123 -116
-151 -149 -37 -44 -89 -154 -105 -225 -13 -59 -15 -214 -3 -260 16 -60 23 -79
48 -130 69 -142 195 -249 354 -301 116 -38 283 -30 395 18 47 20 94 45 100 53
3 4 12 11 21 16 17 9 105 85 166 142 19 17 37 32 41 32 4 0 7 -87 8 -193 0
-178 8 -341 19 -391 2 -12 6 -40 9 -63 3 -22 7 -52 10 -65 3 -12 8 -39 10 -59
3 -20 8 -42 10 -50 3 -8 8 -25 10 -39 8 -39 13 -62 26 -110 7 -25 13 -49 14
-55 4 -19 68 -210 81 -240 41 -93 55 -129 55 -141 0 -8 5 -14 10 -14 6 0 9 -3
8 -7 -3 -10 69 -152 124 -247 81 -140 245 -373 270 -384 5 -2 8 -7 8 -12 0
-28 283 -308 418 -414 49 -38 52 -43 52 -86 0 -25 2 -234 3 -465 3 -409 4
-422 26 -488 39 -115 138 -246 229 -304 15 -10 30 -21 33 -26 3 -5 12 -10 20
-11 8 -2 28 -8 44 -15 17 -7 30 -11 31 -9 0 2 8 -3 18 -11 9 -8 19 -11 23 -8
3 4 12 2 19 -4 23 -19 201 -21 274 -3 69 17 184 71 222 103 13 11 32 28 44 38
81 71 165 224 180 328 4 28 7 122 8 210 1 153 2 160 21 159 19 -1 75 -8 143
-19 134 -21 246 -29 427 -29 141 1 300 9 352 18 10 2 43 7 73 12 30 4 57 8 60
9 3 1 30 5 60 9 30 5 60 11 65 14 6 4 19 7 30 8 22 3 32 5 115 29 30 9 66 18
79 21 38 8 271 94 326 120 27 14 54 23 60 20 6 -2 24 -23 40 -47 17 -24 32
-46 35 -49 3 -3 48 -68 99 -145 52 -77 98 -142 103 -143 4 -2 8 -9 8 -16 0
-16 121 -136 137 -136 7 0 13 -4 13 -8 0 -10 91 -56 151 -76 202 -69 431 -13
589 144 106 105 167 231 175 360 1 26 5 52 9 58 3 5 3 12 -1 16 -3 3 -8 23
-10 44 -7 79 -18 120 -49 187 -22 47 -114 189 -126 193 -4 2 -8 7 -8 12 0 4
-24 43 -53 86 -30 44 -66 97 -80 119 -15 22 -30 45 -35 50 -4 6 -16 24 -26 41
l-19 32 32 31 c17 17 29 31 26 31 -3 0 4 10 16 23 11 12 48 58 80 102 33 44
66 88 74 98 8 9 15 21 15 26 0 5 6 16 13 23 7 7 37 54 66 103 29 50 56 97 61
105 19 32 111 224 115 240 1 3 9 23 19 45 10 22 19 45 20 50 1 6 4 15 8 20 26
44 131 428 143 527 3 24 7 54 9 68 27 184 27 185 30 742 l3 527 33 28 c19 15
50 43 69 62 20 18 58 52 84 75 27 22 68 59 91 81 36 34 104 94 211 190 44 39
157 141 200 180 24 22 74 67 111 100 37 33 89 81 116 106 26 25 48 44 48 42 0
-2 15 14 33 34 52 59 92 131 120 218 22 68 25 94 23 184 -3 108 -15 159 -59
251 -12 25 -24 47 -27 50 -3 3 -21 25 -40 50 -19 25 -48 56 -63 69 -16 14 -35
30 -42 37 -26 26 -154 84 -221 100 -65 15 -213 16 -269 1 -60 -16 -175 -67
-195 -87 -3 -3 -34 -30 -70 -60 -35 -30 -83 -72 -105 -92 -22 -21 -42 -38 -45
-38 -3 0 -5 118 -4 263 0 144 -2 266 -4 271 -2 4 -6 36 -8 70 -2 33 -5 79 -8
101 -3 22 -7 59 -10 82 -3 28 1 56 11 80 13 30 17 74 17 201 1 101 -3 163 -9
164 -25 3 -53 6 -87 7 -34 1 -37 4 -54 49 -10 26 -34 90 -55 142 l-37 95 39
33 c76 65 154 151 171 187 6 14 15 25 19 25 4 0 18 22 32 48 14 27 34 64 45
83 15 27 42 94 47 119 1 3 7 25 15 50 18 61 20 68 28 120 9 61 8 297 -2 340
-4 19 -9 44 -10 55 -2 11 -17 61 -35 112 -53 153 -124 267 -241 383 -90 90
-106 103 -190 155 -112 70 -241 122 -347 140 -18 3 -48 8 -65 11 -57 11 -288
6 -318 -6 -3 -1 -8 -2 -11 -2 -7 1 -141 -34 -169 -44 -8 -3 -15 -4 -15 -3 0 4
-200 -103 -205 -109 -3 -4 -24 -20 -47 -36 -45 -30 -107 -88 -161 -150 -31
-35 -34 -37 -55 -23 -71 48 -158 156 -194 243 -31 71 -36 97 -39 199 -3 95 10
165 45 253 11 29 21 55 21 58 0 16 -206 -35 -294 -71 -20 -9 -39 -16 -43 -17
-13 -3 -196 -97 -235 -121 -78 -47 -220 -152 -267 -199 l-34 -33 6 31 c8 44
100 246 126 277 8 9 11 17 8 17 -3 0 16 38 43 85 27 47 46 85 42 84 -4 0 -27
-7 -52 -16z"/>
</g>
</svg>
